<svg width="27" height="40" viewBox="0 0 37 54" fill="none" xmlns="http://www.w3.org/2000/svg">
<path d="M27.7514 18.0035C30.2042 18.0035 32.5567 17.0551 34.2911 15.367C36.0256 13.6788 37 11.3892 37 9.00176C37 6.61434 36.0256 4.32471 34.2911 2.63655C32.5567 0.948397 30.2042 0 27.7514 0L9.25406 0C6.80261 0 4.45156 0.947841 2.71812 2.63501C0.984676 4.32218 0.0108387 6.61047 0.0108387 8.99648C0.0108387 11.3825 0.984676 13.6708 2.71812 15.358C4.45156 17.0451 6.80261 17.993 9.25406 17.993C6.80117 17.993 4.44874 18.9414 2.71429 20.6295C0.979829 22.3177 0.00542067 24.6073 0.00542067 26.9947C0.00542067 29.3821 0.979829 31.6718 2.71429 33.3599C4.44874 35.0481 6.80117 35.9965 9.25406 35.9965C7.42486 35.9954 5.63641 36.5224 4.11488 37.5106C2.59336 38.4989 1.40709 39.9041 0.70609 41.5485C0.0050922 43.193 -0.179151 45.0028 0.176659 46.7492C0.532469 48.4956 1.41235 50.1001 2.70504 51.3597C3.99773 52.6194 5.64516 53.4776 7.43901 53.826C9.23287 54.1744 11.0926 53.9972 12.7829 53.3168C14.4733 52.6364 15.9185 51.4835 16.9356 50.0037C17.9527 48.524 18.4962 46.7839 18.4973 45.0035V18.0035H27.7514ZM27.7514 18.0035C25.9232 18.0035 24.1361 18.5311 22.6161 19.5197C21.0961 20.5082 19.9113 21.9133 19.2117 23.5572C18.5121 25.2011 18.3291 27.01 18.6857 28.7551C19.0424 30.5003 19.9227 32.1033 21.2154 33.3615C22.5081 34.6197 24.1551 35.4765 25.9481 35.8236C27.7411 36.1708 29.5996 35.9926 31.2886 35.3117C32.9776 34.6307 34.4212 33.4776 35.4368 31.9982C36.4525 30.5187 36.9946 28.7793 36.9946 27C36.9943 24.6141 36.0204 22.3259 34.287 20.6388C32.5536 18.9517 30.2027 18.0038 27.7514 18.0035Z" fill="#808080"/>
</svg>
