<svg width="54" height="54" viewBox="0 0 54 54" fill="none" xmlns="http://www.w3.org/2000/svg">
<path d="M0 0V54H54V0H0ZM29.3866 42.1152C29.3866 47.3705 26.3009 49.7692 21.8049 49.7692C17.7429 49.7692 15.3924 47.6719 14.1871 45.1286L18.3214 42.6335C19.117 44.0438 19.8402 45.2371 21.5879 45.2371C23.2513 45.2371 24.3121 44.5862 24.3121 42.0429V24.7942H29.3866V42.1152V42.1152ZM41.392 49.7692C36.679 49.7692 33.6295 47.5272 32.1469 44.5862L36.2813 42.1996C37.3661 43.9714 38.7884 45.2853 41.2835 45.2853C43.3808 45.2853 44.7308 44.2366 44.7308 42.7781C44.7308 41.0424 43.3567 40.4277 41.0304 39.4031L39.7647 38.8607C36.1004 37.3058 33.6777 35.3411 33.6777 31.2067C33.6777 27.3978 36.5826 24.5049 41.1027 24.5049C44.333 24.5049 46.6473 25.6259 48.3107 28.567L44.3571 31.0982C43.4893 29.5433 42.5491 28.9286 41.0906 28.9286C39.608 28.9286 38.6679 29.8688 38.6679 31.0982C38.6679 32.617 39.608 33.2317 41.7897 34.1839L43.0554 34.7263C47.3705 36.5705 49.7933 38.4629 49.7933 42.7058C49.7933 47.2621 46.2013 49.7692 41.392 49.7692V49.7692Z" fill="#808080"/>
</svg>
