<svg width="62" height="54" viewBox="0 0 62 54" fill="none" xmlns="http://www.w3.org/2000/svg">
<path d="M50.6414 17.4993C49.9875 17.2824 49.3336 17.0775 48.6797 16.8846C48.7887 16.4387 48.8855 15.9927 48.9824 15.5468C50.4719 8.36322 49.491 2.58987 46.1852 0.68551C43.0004 -1.13448 37.8055 0.757827 32.55 5.31383C32.0293 5.75979 31.5207 6.22986 31.0363 6.69992C30.7094 6.38654 30.3703 6.07317 30.0312 5.77185C24.5215 0.902462 18.9996 -1.14654 15.6938 0.76988C12.5211 2.60193 11.5766 8.0378 12.9086 14.8356C13.0418 15.5106 13.1871 16.1735 13.3566 16.8485C12.5816 17.0654 11.8187 17.3065 11.1043 17.5596C4.63789 19.7894 0 23.3089 0 26.9488C0 30.7094 4.94063 34.4819 11.6613 36.772C12.2063 36.9528 12.7512 37.1336 13.3082 37.2903C13.1266 38.0134 12.9691 38.7245 12.8238 39.4598C11.5523 46.1492 12.5453 51.4524 15.718 53.2724C18.9875 55.1527 24.4852 53.2242 29.8375 48.5597C30.2613 48.1861 30.6852 47.8004 31.109 47.3906C31.6418 47.9089 32.1988 48.4031 32.7559 48.8852C37.9387 53.3206 43.0609 55.1165 46.2215 53.2965C49.491 51.4163 50.5566 45.7152 49.1762 38.7728C49.0672 38.2424 48.9461 37.7001 48.8129 37.1456C49.2004 37.0371 49.5758 36.9166 49.9512 36.7961C56.9383 34.494 62 30.7696 62 26.9488C62 23.2968 57.2289 19.7532 50.6414 17.4993V17.4993ZM34.2574 7.26641C38.7621 3.36126 42.9641 1.83054 44.8773 2.92735C46.9238 4.09649 47.7109 8.82124 46.4273 15.0285C46.3426 15.4383 46.2578 15.836 46.1488 16.2338C43.4605 15.6311 40.7359 15.1972 37.9992 14.9562C36.425 12.7143 34.7055 10.5689 32.8406 8.55607C33.3129 8.11011 33.773 7.68826 34.2574 7.26641V7.26641ZM20.2469 33.2043C20.8645 34.2529 21.4941 35.3015 22.1602 36.326C20.2711 36.1211 18.3941 35.8198 16.5414 35.422C17.0742 33.6864 17.7402 31.8905 18.5152 30.0585C19.0723 31.1192 19.6414 32.1678 20.2469 33.2043V33.2043ZM16.5777 18.7046C18.3215 18.3189 20.1742 18.0056 22.0996 17.7645C21.4578 18.7649 20.8281 19.7894 20.2348 20.826C19.6414 21.8505 19.0602 22.8991 18.5152 23.9597C17.7523 22.1638 17.1105 20.4041 16.5777 18.7046ZM19.8957 27.0091C20.6949 25.3458 21.5668 23.7187 22.4871 22.1156C23.4074 20.5126 24.4004 18.9577 25.4418 17.427C27.2582 17.2944 29.1109 17.2221 31 17.2221C32.8891 17.2221 34.7539 17.2944 36.5582 17.427C37.5875 18.9457 38.5684 20.5005 39.5008 22.0915C40.4332 23.6825 41.3051 25.3096 42.1285 26.9609C41.3172 28.6242 40.4453 30.2634 39.5129 31.8785C38.5926 33.4815 37.6117 35.0364 36.5824 36.5791C34.7781 36.7117 32.9012 36.772 31 36.772C29.0988 36.772 27.2582 36.7117 25.4781 36.6032C24.4246 35.0725 23.4316 33.5056 22.4992 31.9026C21.5668 30.2996 20.707 28.6724 19.8957 27.0091ZM41.7652 33.1802C42.3828 32.1195 42.9641 31.0468 43.5332 29.9621C44.3082 31.7097 44.9863 33.4815 45.5797 35.3015C43.7027 35.7234 41.8016 36.0488 39.8883 36.2658C40.5422 35.2533 41.1598 34.2168 41.7652 33.1802ZM43.509 23.9597C42.9398 22.8991 42.3586 21.8384 41.7531 20.8018C41.1598 19.7773 40.5422 18.7649 39.9004 17.7645C41.85 18.0056 43.7148 18.331 45.4586 18.7287C44.9016 20.5126 44.2477 22.2482 43.509 23.9597V23.9597ZM31.0242 10.4002C32.2957 11.7742 33.4945 13.2206 34.6086 14.7151C32.2109 14.6066 29.8012 14.6066 27.4035 14.7151C28.5902 13.1603 29.8133 11.7139 31.0242 10.4002ZM16.9773 3.01172C19.0117 1.83054 23.5285 3.51795 28.2875 7.71237C28.5902 7.97753 28.893 8.2668 29.2078 8.55607C27.3309 10.5689 25.5992 12.7143 24.0129 14.9562C21.2762 15.1972 18.5637 15.6191 15.8754 16.2097C15.718 15.595 15.5848 14.9682 15.4516 14.3415C14.3133 8.50786 15.0641 4.10854 16.9773 3.01172V3.01172ZM14.0105 34.7832C13.502 34.6386 13.0055 34.4819 12.509 34.3132C9.92969 33.5056 6.99922 32.228 4.88008 30.5527C3.65703 29.709 2.83359 28.4072 2.60352 26.9488C2.60352 24.7432 6.43008 21.9228 11.952 20.0064C12.6422 19.7653 13.3445 19.5483 14.0469 19.3434C14.8703 21.9589 15.8633 24.5262 17.0137 27.0091C15.8512 29.5282 14.8461 32.1316 14.0105 34.7832V34.7832ZM28.1301 46.5951C26.132 48.4151 23.8191 49.8615 21.3004 50.8498C19.9562 51.4886 18.4063 51.5489 17.0258 51.0065C15.1004 49.8976 14.3012 45.6429 15.391 39.9178C15.5242 39.2428 15.6695 38.5679 15.8391 37.905C18.5516 38.4835 21.2883 38.8812 24.0613 39.0861C25.6598 41.34 27.4156 43.4975 29.2926 45.5224C28.9051 45.896 28.5176 46.2576 28.1301 46.5951ZM31.0969 43.6662C29.8617 42.3404 28.6266 40.87 27.4277 39.291C28.5902 39.3392 29.7891 39.3634 31 39.3634C32.2473 39.3634 33.4703 39.3392 34.6812 39.279C33.5672 40.8097 32.3684 42.2681 31.0969 43.6662V43.6662ZM46.9238 47.2821C46.8148 48.7526 46.0883 50.1266 44.9258 51.0547C43.0004 52.1636 38.8953 50.7172 34.4633 46.9326C33.9547 46.4987 33.4461 46.0286 32.9254 45.5465C34.7781 43.5096 36.4855 41.3521 38.0355 39.0861C40.8086 38.8571 43.5695 38.4353 46.2941 37.8206C46.4152 38.3147 46.5242 38.8089 46.6211 39.291C47.2145 41.8945 47.3113 44.6064 46.9238 47.2821V47.2821ZM49.1277 34.3252C48.7887 34.4337 48.4496 34.5422 48.0984 34.6386C47.2508 32.0111 46.2094 29.4438 45.0105 26.9488C46.173 24.49 47.1539 21.9589 47.9773 19.3675C48.607 19.5483 49.2125 19.7412 49.7938 19.934C55.4367 21.8625 59.3965 24.7311 59.3965 26.9247C59.3965 29.2871 55.1703 32.3365 49.1277 34.3252ZM31 32.5173C34.0637 32.5173 36.5461 30.0464 36.5461 26.9971C36.5461 23.9477 34.0637 21.4768 31 21.4768C27.9363 21.4768 25.4539 23.9477 25.4539 26.9971C25.4539 30.0464 27.9363 32.5173 31 32.5173Z" fill="#808080"/>
</svg>
